<mxfile host="app.diagrams.net" modified="2022-05-11T11:14:37.289Z" agent="5.0 (Macintosh; Intel Mac OS X 10_15_7) AppleWebKit/537.36 (KHTML, like Gecko) Chrome/101.0.4951.54 Safari/537.36" etag="WAMTAF7kfin2GBTIKMq4" version="18.0.2" type="github">
  <diagram id="BcNxF-5-foICEg2mSap0" name="Page-1">
    <mxGraphModel dx="1298" dy="751" grid="1" gridSize="10" guides="1" tooltips="1" connect="1" arrows="1" fold="1" page="1" pageScale="1" pageWidth="827" pageHeight="1169" math="0" shadow="0">
      <root>
        <mxCell id="0" />
        <mxCell id="1" parent="0" />
        <mxCell id="KURiqR9ZCNZD4I_bsZ6I-2" value="" style="shape=umlLifeline;participant=umlActor;perimeter=lifelinePerimeter;whiteSpace=wrap;html=1;container=1;collapsible=0;recursiveResize=0;verticalAlign=top;spacingTop=36;outlineConnect=0;hachureGap=4;pointerEvents=0;" parent="1" vertex="1">
          <mxGeometry x="140" y="290" width="20" height="300" as="geometry" />
        </mxCell>
        <mxCell id="KURiqR9ZCNZD4I_bsZ6I-3" value="" style="shape=umlLifeline;participant=umlBoundary;perimeter=lifelinePerimeter;whiteSpace=wrap;html=1;container=1;collapsible=0;recursiveResize=0;verticalAlign=top;spacingTop=36;outlineConnect=0;hachureGap=4;pointerEvents=0;" parent="1" vertex="1">
          <mxGeometry x="270" y="285" width="50" height="300" as="geometry" />
        </mxCell>
      </root>
    </mxGraphModel>
  </diagram>
</mxfile>
